<?xml version="1.0" standalone="no"?>
<!DOCTYPE svg PUBLIC "-//W3C//DTD SVG 20010904//EN"
 "http://www.w3.org/TR/2001/REC-SVG-20010904/DTD/svg10.dtd">
<svg version="1.0" xmlns="http://www.w3.org/2000/svg"
 width="500.000000pt" height="500.000000pt" viewBox="0 0 500.000000 500.000000"
 preserveAspectRatio="xMidYMid meet">

<g transform="translate(0.000000,500.000000) scale(0.100000,-0.100000)"
fill="#0c0a09" stroke="none">
<path d="M2423 3790 c-13 -5 -23 -15 -23 -23 0 -20 23 -45 45 -49 17 -3 21
-12 23 -63 4 -70 -15 -165 -36 -182 -10 -8 -39 -10 -93 -6 -67 5 -79 4 -85
-11 -3 -9 -16 -16 -28 -15 -20 0 -20 1 -1 9 16 7 11 9 -20 9 -29 1 -36 -2 -25
-9 11 -7 1 -9 -35 -9 -47 2 -48 2 -15 9 22 5 -13 8 -97 9 -112 1 -133 -1 -133
-14 0 -10 10 -15 28 -15 157 0 491 -10 507 -16 14 -5 17 -4 10 4 -5 6 -23 12
-40 14 l-30 3 45 22 c25 13 52 28 61 34 13 10 22 8 44 -9 15 -12 35 -22 43
-22 12 0 9 -6 -9 -26 l-24 -26 -5 29 c-4 22 -11 29 -33 31 -16 2 -29 -2 -32
-10 -3 -8 -7 -297 -8 -643 l-2 -629 -25 -7 c-22 -6 -23 -7 -4 -8 12 -1 25 -8
28 -17 4 -11 16 -14 41 -12 l36 3 2 627 c1 427 5 630 13 638 5 5 45 12 88 15
43 2 85 10 94 17 11 9 14 9 9 1 -6 -9 27 -13 133 -15 87 -2 142 1 144 7 2 6 3
0 3 -12 -1 -12 -5 -19 -9 -17 -4 3 -8 -4 -8 -16 0 -12 4 -19 9 -15 6 3 6 -7 0
-27 -6 -22 -6 -34 1 -36 5 -2 10 -8 10 -13 0 -4 -8 -6 -17 -3 -15 5 -16 4 -3
-5 28 -20 43 -13 35 17 -4 15 -7 32 -6 37 0 6 2 28 4 50 2 34 6 40 27 40 15 0
26 7 28 18 3 16 -15 17 -267 17 -189 0 -272 3 -277 11 -4 6 -9 63 -12 125 l-5
114 27 0 c32 0 58 42 38 62 -15 15 -139 21 -169 8z m29 -49 c10 0 10 2 1 6
-31 12 -8 23 47 23 55 0 78 -11 48 -23 -8 -3 -6 -6 5 -6 11 -1 17 6 17 20 0
11 5 17 10 14 16 -10 -7 -43 -32 -47 -22 -3 -23 -6 -23 -115 0 -61 -3 -109 -7
-106 -14 8 -9 241 5 246 7 4 6 6 -4 6 -25 1 -29 -19 -29 -139 0 -88 -3 -110
-17 -121 -15 -13 -15 -11 -7 16 5 17 9 70 9 120 0 87 -1 89 -25 95 -17 4 -26
13 -27 30 -3 25 -3 25 7 3 5 -13 15 -23 22 -22z m62 -298 c3 -10 5 -53 4 -97
-1 -67 -4 -79 -19 -83 -18 -5 -19 -30 -22 -542 l-2 -536 -1 585 c0 322 1 575
3 563 6 -31 18 -29 18 2 0 14 -6 25 -12 25 -14 0 -18 56 -7 84 8 21 31 20 38
-1z m331 7 c-3 -5 -26 -10 -51 -10 -28 0 -43 4 -39 10 3 6 26 10 51 10 28 0
43 -4 39 -10z m-325 -740 c0 -473 -2 -540 -15 -540 -13 0 -15 66 -15 534 0
524 1 537 28 545 1 1 2 -242 2 -539z"/>
<path d="M2482 3416 c1 -10 8 -17 13 -17 15 1 12 24 -3 29 -9 3 -13 -2 -10
-12z"/>
<path d="M2485 3290 c-3 -5 -2 -10 4 -10 5 0 13 5 16 10 3 6 2 10 -4 10 -5 0
-13 -4 -16 -10z"/>
<path d="M1954 3405 c-4 -9 -4 -27 -1 -42 3 -15 1 -37 -4 -50 -5 -14 -5 -23 1
-23 6 0 10 5 10 11 0 5 4 7 10 4 13 -8 9 48 -5 57 -6 5 -3 12 9 21 11 8 16 19
12 25 -10 17 -26 15 -32 -3z m26 1 c0 -3 -4 -8 -10 -11 -5 -3 -10 -1 -10 4 0
6 5 11 10 11 6 0 10 -2 10 -4z"/>
<path d="M1965 3280 c-3 -6 1 -7 9 -4 18 7 21 14 7 14 -6 0 -13 -4 -16 -10z"/>
<path d="M1936 3269 c-2 -8 -9 -29 -15 -48 -17 -53 -5 -48 13 5 9 26 14 50 11
52 -2 3 -6 -1 -9 -9z"/>
<path d="M3020 3259 c-13 -9 -13 -10 1 -6 12 4 19 -5 28 -34 11 -35 31 -54 31
-29 0 6 -4 10 -10 10 -5 0 -9 3 -8 8 2 12 -14 62 -21 62 -3 0 -13 -5 -21 -11z"/>
<path d="M1960 3179 c0 -5 5 -7 10 -4 6 3 10 8 10 11 0 2 -4 4 -10 4 -5 0 -10
-5 -10 -11z"/>
<path d="M2020 3161 c0 -18 12 -41 22 -41 7 0 6 5 -1 13 -6 8 -8 16 -5 19 3 3
1 9 -5 13 -6 3 -11 2 -11 -4z"/>
<path d="M2950 3146 c-12 -33 -12 -36 -1 -36 10 0 25 50 17 58 -3 2 -10 -7
-16 -22z"/>
<path d="M3074 3154 c3 -9 9 -28 12 -42 12 -55 58 -182 66 -182 11 0 11 -3
-18 81 -14 41 -27 79 -28 86 -1 7 -5 16 -9 19 -4 4 -7 18 -7 31 0 13 -5 23
-11 23 -6 0 -8 -7 -5 -16z"/>
<path d="M1965 3150 c3 -5 8 -10 11 -10 2 0 4 5 4 10 0 6 -5 10 -11 10 -5 0
-7 -4 -4 -10z"/>
<path d="M3010 3130 c0 -5 5 -10 11 -10 5 0 7 5 4 10 -3 6 -8 10 -11 10 -2 0
-4 -4 -4 -10z"/>
<path d="M2035 3100 c3 -5 8 -10 11 -10 2 0 4 5 4 10 0 6 -5 10 -11 10 -5 0
-7 -4 -4 -10z"/>
<path d="M1885 3090 c3 -5 8 -10 11 -10 2 0 4 5 4 10 0 6 -5 10 -11 10 -5 0
-7 -4 -4 -10z"/>
<path d="M1960 3077 c0 -15 4 -27 10 -27 5 0 9 9 7 20 -5 31 -17 36 -17 7z"/>
<path d="M3010 3089 c0 -5 5 -7 10 -4 6 3 10 8 10 11 0 2 -4 4 -10 4 -5 0 -10
-5 -10 -11z"/>
<path d="M2933 3083 c4 -3 3 -11 -2 -17 -15 -19 -30 -75 -22 -80 4 -3 14 13
20 35 7 23 15 47 18 55 3 8 -1 14 -8 14 -7 0 -9 -3 -6 -7z"/>
<path d="M2047 3068 c4 -7 8 -16 8 -20 0 -11 15 -22 15 -10 0 19 -12 42 -22
42 -5 0 -6 -6 -1 -12z"/>
<path d="M1965 3031 c-3 -5 -1 -12 5 -16 5 -3 10 1 10 9 0 18 -6 21 -15 7z"/>
<path d="M2065 3010 c3 -5 8 -10 11 -10 2 0 4 5 4 10 0 6 -5 10 -11 10 -5 0
-7 -4 -4 -10z"/>
<path d="M3015 3000 c-3 -5 -1 -10 4 -10 6 0 11 5 11 10 0 6 -2 10 -4 10 -3 0
-8 -4 -11 -10z"/>
<path d="M1845 2981 c-3 -5 -1 -12 5 -16 5 -3 10 1 10 9 0 18 -6 21 -15 7z"/>
<path d="M2075 2980 c3 -5 8 -10 11 -10 2 0 4 5 4 10 0 6 -5 10 -11 10 -5 0
-7 -4 -4 -10z"/>
<path d="M1967 2973 c-2 -5 -1 -19 4 -33 7 -23 7 -23 8 8 1 31 -3 40 -12 25z"/>
<path d="M2893 2964 c3 -4 2 -15 -4 -25 -6 -13 -6 -19 1 -19 5 0 10 4 10 9 0
5 3 16 6 25 4 10 1 16 -7 16 -7 0 -9 -3 -6 -6z"/>
<path d="M3010 2959 c0 -5 5 -7 10 -4 6 3 10 8 10 11 0 2 -4 4 -10 4 -5 0 -10
-5 -10 -11z"/>
<path d="M2085 2950 c3 -5 8 -10 11 -10 2 0 4 5 4 10 0 6 -5 10 -11 10 -5 0
-7 -4 -4 -10z"/>
<path d="M3010 2920 c0 -11 5 -20 10 -20 6 0 10 9 10 20 0 11 -4 20 -10 20 -5
0 -10 -9 -10 -20z"/>
<path d="M1827 2907 c-2 -12 -8 -30 -12 -39 -4 -10 -3 -18 1 -18 12 0 33 69
24 75 -4 3 -10 -5 -13 -18z"/>
<path d="M3154 2898 c3 -13 5 -24 7 -25 1 -2 2 -6 4 -10 1 -7 7 -21 28 -73 4
-8 4 2 2 23 -5 39 -30 107 -39 107 -3 0 -4 -10 -2 -22z"/>
<path d="M1965 2900 c-3 -5 -1 -10 4 -10 6 0 11 5 11 10 0 6 -2 10 -4 10 -3 0
-8 -4 -11 -10z"/>
<path d="M2103 2896 c4 -10 7 -22 7 -27 0 -5 4 -9 9 -9 12 0 2 38 -12 47 -7 4
-8 0 -4 -11z"/>
<path d="M1960 2870 c0 -5 5 -10 10 -10 6 0 10 5 10 10 0 6 -4 10 -10 10 -5 0
-10 -4 -10 -10z"/>
<path d="M2871 2873 c-1 -6 -4 -20 -7 -30 -5 -17 -5 -17 6 0 6 10 9 23 6 30
-3 9 -5 9 -5 0z"/>
<path d="M1967 2843 c-6 -11 -2 -51 6 -59 4 -4 7 9 7 29 0 36 -4 45 -13 30z"/>
<path d="M3010 2840 c0 -5 5 -10 10 -10 6 0 10 5 10 10 0 6 -4 10 -10 10 -5 0
-10 -4 -10 -10z"/>
<path d="M2127 2820 c6 -22 23 -38 23 -21 0 17 -12 41 -20 41 -5 0 -6 -9 -3
-20z"/>
<path d="M1800 2821 c0 -5 -3 -16 -6 -25 -3 -9 -1 -16 6 -16 6 0 9 4 5 9 -3 5
-1 12 5 16 13 8 13 25 0 25 -5 0 -10 -4 -10 -9z"/>
<path d="M2846 2794 c-8 -21 -8 -24 3 -24 5 0 11 9 14 20 6 24 -8 27 -17 4z"/>
<path d="M3010 2799 c0 -5 5 -7 10 -4 6 3 10 8 10 11 0 2 -4 4 -10 4 -5 0 -10
-5 -10 -11z"/>
<path d="M2153 2745 c13 -44 29 -47 16 -3 -5 18 -9 34 -9 35 0 2 -4 3 -9 3 -5
0 -4 -15 2 -35z"/>
<path d="M3015 2770 c3 -5 8 -10 11 -10 2 0 4 5 4 10 0 6 -5 10 -11 10 -5 0
-7 -4 -4 -10z"/>
<path d="M1785 2761 c-3 -5 -2 -12 3 -15 5 -3 9 1 9 9 0 17 -3 19 -12 6z"/>
<path d="M1960 2753 c0 -31 14 -40 74 -47 97 -11 147 -26 144 -44 -4 -21 -46
-31 -155 -37 -154 -8 -285 17 -253 49 7 7 15 4 25 -11 12 -17 22 -20 57 -16
74 8 88 13 88 31 0 10 6 24 13 31 10 11 1 12 -50 7 -96 -11 -147 -28 -151 -53
-5 -31 37 -73 83 -83 57 -13 253 -11 295 3 36 13 74 64 65 89 -7 17 -74 36
-156 45 -54 5 -59 8 -59 29 0 13 -4 24 -10 24 -5 0 -10 -8 -10 -17z m-40 -68
c0 -20 -5 -25 -24 -25 -28 0 -56 27 -35 34 8 2 21 7 29 9 27 9 30 7 30 -18z
m248 -67 c-2 -6 -10 -14 -16 -16 -7 -2 -10 2 -6 12 7 18 28 22 22 4z"/>
<path d="M3200 2759 c0 -8 5 -21 10 -29 8 -12 9 -10 7 7 -4 26 -17 43 -17 22z"/>
<path d="M2834 2720 c1 -19 -3 -30 -11 -30 -43 0 -12 -80 39 -101 44 -19 269
-19 321 -1 32 12 37 17 32 35 -5 16 -4 18 3 8 8 -11 12 -10 21 7 14 26 14 42
1 42 -5 0 -10 -6 -10 -14 0 -20 -98 -36 -224 -36 -127 0 -186 12 -186 38 1 16
2 16 14 0 14 -20 51 -24 61 -8 3 6 -1 10 -9 10 -9 0 -16 6 -16 14 0 17 95 32
136 22 18 -5 24 -3 18 5 -7 12 -112 7 -163 -7 -22 -7 -23 -5 -17 19 3 15 2 27
-3 27 -5 0 -8 -13 -7 -30z"/>
<path d="M3015 2740 c-3 -5 -1 -10 4 -10 6 0 11 5 11 10 0 6 -2 10 -4 10 -3 0
-8 -4 -11 -10z"/>
<path d="M3065 2714 c17 -3 37 -7 45 -10 25 -9 120 -14 120 -6 0 4 -12 8 -27
9 -16 0 -59 4 -98 6 -38 3 -56 3 -40 1z"/>
<path d="M3010 2680 c0 -5 5 -10 10 -10 6 0 10 5 10 10 0 6 -4 10 -10 10 -5 0
-10 -4 -10 -10z"/>
<path d="M1960 2660 c0 -5 5 -10 10 -10 6 0 10 5 10 10 0 6 -4 10 -10 10 -5 0
-10 -4 -10 -10z"/>
<path d="M2938 2663 c12 -2 32 -2 45 0 12 2 2 4 -23 4 -25 0 -35 -2 -22 -4z"/>
<path d="M3063 2663 c15 -2 37 -2 50 0 12 2 0 4 -28 4 -27 0 -38 -2 -22 -4z"/>
<path d="M2043 2653 c9 -2 23 -2 30 0 6 3 -1 5 -18 5 -16 0 -22 -2 -12 -5z"/>
<path d="M2558 2173 c6 -2 18 -2 25 0 6 3 1 5 -13 5 -14 0 -19 -2 -12 -5z"/>
<path d="M2090 2150 c-48 -48 -21 -57 188 -62 172 -4 182 -3 182 15 0 10 5 15
11 12 6 -4 8 -14 5 -22 -4 -9 -1 -13 6 -11 7 3 13 11 13 19 0 8 13 16 30 19
50 9 -220 22 -301 15 -52 -5 -74 -4 -74 4 0 6 8 12 18 12 9 1 67 5 127 9 l110
7 -147 1 c-136 2 -150 0 -168 -18z m220 -35 c0 -10 -9 -15 -27 -14 -22 1 -24
2 -8 7 l20 5 -20 8 c-17 7 -16 8 8 8 18 1 27 -4 27 -14z m-95 -5 c15 -6 8 -9
-27 -8 -26 1 -45 5 -42 10 7 10 43 9 69 -2z m222 -12 c-3 -8 -6 -5 -6 6 -1 11
2 17 5 13 3 -3 4 -12 1 -19z"/>
<path d="M2633 2163 c41 -5 51 -23 12 -23 -18 0 -25 -5 -25 -20 0 -11 -5 -20
-11 -20 -6 0 -13 9 -16 20 -3 11 -13 20 -22 20 -13 0 -13 -2 -2 -9 20 -13 7
-39 -21 -43 -13 -2 56 -2 152 0 96 3 183 8 193 14 9 5 17 17 17 26 0 38 -19
42 -170 40 -80 -1 -128 -3 -107 -5z m87 -13 c0 -5 -9 -10 -20 -10 -11 0 -20 5
-20 10 0 6 9 10 20 10 11 0 20 -4 20 -10z m70 1 c0 -5 3 -16 6 -25 9 -23 -22
-31 -41 -12 -15 15 -15 16 2 17 10 0 13 3 6 6 -20 8 -15 23 7 23 11 0 20 -4
20 -9z"/>
<path d="M558 1803 c8 -3 12 -32 12 -93 0 -61 -4 -90 -12 -93 -7 -3 17 -6 53
-6 52 -1 68 2 73 15 10 25 7 26 -16 10 -12 -9 -33 -16 -45 -16 -22 0 -23 3
-23 89 0 62 4 91 13 94 6 3 -6 5 -28 5 -22 0 -34 -2 -27 -5z"/>
<path d="M718 1803 c8 -3 12 -32 12 -93 0 -61 -4 -90 -12 -93 -7 -3 5 -5 27
-5 22 0 34 2 28 5 -9 3 -13 32 -13 93 0 61 4 90 13 93 6 3 -6 5 -28 5 -22 0
-34 -2 -27 -5z"/>
<path d="M808 1803 c8 -3 12 -32 12 -93 0 -61 -4 -90 -12 -93 -7 -3 12 -6 42
-6 64 -1 100 18 100 54 0 13 -9 30 -20 38 -18 13 -19 16 -5 27 19 16 19 44 -1
64 -11 11 -33 16 -72 15 -31 0 -51 -3 -44 -6z m101 -25 c12 -31 -4 -58 -34
-58 -22 0 -25 4 -25 40 0 36 2 40 25 40 17 0 28 -7 34 -22z m5 -84 c30 -30 10
-74 -34 -74 -29 0 -30 2 -30 45 0 41 2 45 24 45 14 0 32 -7 40 -16z"/>
<path d="M988 1798 c16 -16 16 -160 0 -176 -9 -9 4 -12 60 -12 40 0 72 4 72 9
0 5 3 17 7 27 5 14 2 13 -15 -4 -14 -14 -34 -22 -57 -22 -35 0 -35 0 -35 45 0
40 2 45 23 45 13 0 28 -5 35 -12 9 -9 12 -8 12 8 0 17 -5 19 -35 16 -35 -4
-35 -4 -35 37 0 40 1 41 35 41 22 0 38 -6 44 -17 9 -16 10 -16 11 5 0 21 -4
22 -67 22 -52 0 -64 -3 -55 -12z"/>
<path d="M1158 1803 c8 -3 12 -32 12 -93 0 -61 -4 -90 -12 -93 -7 -3 5 -5 27
-5 22 0 34 2 28 5 -17 6 -17 83 0 83 6 0 24 -20 39 -45 22 -35 33 -45 54 -45
l27 0 -27 21 c-14 11 -33 33 -40 48 -13 25 -13 28 5 39 26 16 26 68 0 82 -11
5 -44 10 -73 9 -29 0 -47 -3 -40 -6z m100 -15 c29 -29 7 -78 -35 -78 -21 0
-23 5 -23 45 0 40 2 45 23 45 13 0 28 -5 35 -12z"/>
<path d="M1330 1783 l0 -27 16 22 c8 12 24 22 35 22 17 0 19 -7 19 -83 0 -51
-5 -88 -12 -95 -9 -9 -4 -12 26 -12 34 0 36 1 22 16 -12 11 -16 36 -16 95 0
77 1 79 25 79 13 0 29 -8 34 -17 9 -16 10 -16 11 5 0 21 -4 22 -80 22 l-80 0
0 -27z"/>
<path d="M1512 1798 c51 -41 85 -147 56 -176 -9 -9 -4 -12 26 -12 35 0 36 1
21 16 -10 10 -15 29 -14 48 2 20 -6 46 -20 69 -13 21 -20 44 -17 52 4 12 -3
15 -31 15 -31 0 -34 -2 -21 -12z"/>
<path d="M1629 1796 c10 -11 9 -22 -5 -48 -18 -37 -11 -31 30 25 l27 37 -32 0
c-26 0 -29 -2 -20 -14z"/>
<path d="M1788 1798 c7 -7 12 -42 12 -88 0 -46 -5 -81 -12 -88 -9 -9 3 -12 54
-12 57 0 66 3 71 20 5 18 4 19 -16 5 -12 -8 -34 -15 -49 -15 l-28 0 0 83 c0
51 5 88 12 95 9 9 4 12 -22 12 -26 0 -31 -3 -22 -12z"/>
<path d="M1948 1798 c16 -16 16 -160 0 -177 -11 -10 1 -11 56 -9 63 3 70 5 78
28 l9 24 -24 -22 c-14 -13 -36 -22 -55 -22 -31 0 -32 1 -32 45 0 40 2 45 23
45 13 0 28 -5 35 -12 9 -9 12 -5 11 18 0 16 -3 23 -6 17 -2 -7 -18 -13 -34
-13 -27 0 -29 2 -29 40 0 37 2 40 27 40 14 0 35 -7 45 -17 17 -15 18 -15 18 5
0 20 -5 22 -67 22 -52 0 -64 -3 -55 -12z"/>
<path d="M2145 1787 c-20 -16 -28 -35 -32 -69 -5 -42 -3 -50 25 -78 17 -16 37
-30 45 -30 11 0 6 10 -14 29 -39 40 -41 109 -4 146 30 31 15 33 -20 2z"/>
<path d="M2248 1783 c18 -19 28 -24 30 -15 7 24 -7 42 -32 42 l-25 0 27 -27z"/>
<path d="M2398 1798 c-3 -7 2 -25 10 -41 8 -15 15 -33 16 -40 2 -7 8 -25 15
-42 7 -16 10 -37 8 -47 -4 -14 1 -18 24 -18 28 0 29 1 15 23 -7 12 -27 57 -42
100 -28 75 -38 90 -46 65z"/>
<path d="M2528 1798 c7 -7 12 -42 12 -88 0 -46 -5 -81 -12 -88 -9 -9 3 -12 54
-12 57 0 66 3 71 20 5 18 4 19 -16 5 -12 -8 -34 -15 -49 -15 l-28 0 0 83 c0
51 5 88 12 95 9 9 4 12 -22 12 -26 0 -31 -3 -22 -12z"/>
<path d="M2831 1792 c-13 -24 -15 -43 -2 -24 5 9 17 -11 34 -59 20 -54 24 -75
16 -86 -9 -10 -4 -13 25 -13 32 0 35 2 23 14 -7 8 -26 49 -42 93 -33 93 -40
102 -54 75z"/>
<path d="M2975 1794 c-26 -26 -15 -66 22 -85 51 -26 65 -41 60 -66 -3 -19 -2
-21 9 -12 32 26 8 78 -42 93 -12 4 -29 15 -39 26 -35 39 27 69 67 33 17 -15
18 -15 18 5 0 19 -6 22 -39 22 -23 0 -46 -7 -56 -16z"/>
<path d="M3126 1791 c-30 -33 -17 -63 37 -89 42 -20 48 -26 45 -50 -5 -43 -75
-43 -96 0 -8 17 -11 19 -11 6 -2 -37 10 -48 54 -48 48 0 75 22 75 63 0 22 -8
31 -47 49 -38 18 -48 28 -48 48 0 36 51 42 76 9 l17 -23 -5 27 c-5 24 -10 27
-43 27 -24 0 -43 -7 -54 -19z"/>
<path d="M3293 1786 c-24 -21 -28 -32 -28 -76 0 -44 4 -55 28 -76 40 -34 62
-30 26 5 -39 40 -41 109 -4 146 31 32 15 32 -22 1z"/>
<path d="M3401 1781 c39 -40 41 -109 4 -146 -30 -31 -15 -33 20 -2 20 16 28
35 32 69 5 42 3 50 -25 78 -17 16 -37 30 -45 30 -11 0 -6 -10 14 -29z"/>
<path d="M3519 1781 c-23 -23 -29 -38 -29 -71 0 -33 6 -48 29 -71 16 -16 38
-29 48 -28 16 0 15 2 -3 11 -49 23 -61 122 -19 163 13 14 19 25 14 25 -6 0
-24 -13 -40 -29z"/>
<path d="M3628 1783 c18 -19 28 -24 30 -15 7 24 -7 42 -32 42 l-25 0 27 -27z"/>
<path d="M3698 1803 c8 -3 12 -32 12 -93 0 -61 -4 -90 -12 -93 -7 -3 5 -5 27
-5 22 0 34 2 28 5 -9 3 -13 32 -13 93 0 61 4 90 13 93 6 3 -6 5 -28 5 -22 0
-34 -2 -27 -5z"/>
<path d="M3857 1790 c-3 -11 -1 -18 3 -15 8 5 24 -45 20 -61 -1 -4 4 -10 11
-15 7 -4 13 -26 13 -48 1 -38 3 -41 30 -41 21 0 26 3 19 13 -6 6 -25 51 -43
100 -33 89 -44 102 -53 67z"/>
<path d="M3970 1783 l0 -27 16 22 c8 12 24 22 35 22 17 0 19 -7 19 -83 0 -51
-5 -88 -12 -95 -9 -9 -4 -12 26 -12 34 0 36 1 22 16 -12 11 -16 36 -16 95 0
77 1 79 25 79 13 0 29 -8 34 -17 9 -16 10 -16 11 5 0 21 -4 22 -80 22 l-80 0
0 -27z"/>
<path d="M4158 1798 c16 -16 16 -160 0 -176 -9 -9 4 -12 60 -12 40 0 72 4 72
9 0 5 3 17 7 27 5 14 2 13 -15 -4 -14 -14 -34 -22 -57 -22 -35 0 -35 0 -35 45
0 40 2 45 23 45 13 0 28 -5 35 -12 9 -9 12 -8 12 8 0 17 -5 19 -35 16 -35 -4
-35 -4 -35 37 0 40 1 41 35 41 22 0 38 -6 44 -17 9 -16 10 -16 11 5 0 21 -4
22 -67 22 -52 0 -64 -3 -55 -12z"/>
<path d="M4345 1794 c-26 -26 -15 -66 22 -85 51 -26 65 -41 60 -66 -3 -19 -2
-21 9 -12 32 26 8 78 -42 93 -12 4 -29 15 -39 26 -35 39 27 69 67 33 17 -15
18 -15 18 5 0 19 -6 22 -39 22 -23 0 -46 -7 -56 -16z"/>
<path d="M2361 1701 c-12 -33 -29 -67 -37 -76 -14 -13 -12 -15 14 -15 25 0 29
3 25 24 -3 13 3 45 11 71 24 70 13 66 -13 -4z"/>
<path d="M3820 1690 c-7 -22 -22 -49 -32 -60 -19 -20 -18 -20 19 -20 27 0 34
3 23 10 -12 8 -13 16 -2 56 16 58 10 68 -8 14z"/>
<path d="M2779 1664 l-25 -54 29 0 c24 0 27 2 18 14 -9 11 -10 25 -2 52 6 21
9 39 8 40 -1 1 -14 -22 -28 -52z"/>
<path d="M2238 1684 c24 -16 30 -59 10 -68 -7 -3 -4 -5 7 -3 14 1 21 11 23 32
2 17 8 36 14 43 8 9 1 12 -33 12 -42 0 -43 0 -21 -16z"/>
<path d="M2952 1645 c3 -28 6 -30 48 -32 41 -1 42 0 10 5 -23 5 -39 16 -48 32
l-13 25 3 -30z"/>
<path d="M4322 1645 c3 -28 6 -30 48 -32 41 -1 42 0 10 5 -23 5 -39 16 -48 32
l-13 25 3 -30z"/>
<path d="M3636 1634 c-28 -25 -28 -26 -6 -22 13 1 27 13 31 26 10 27 11 27
-25 -4z"/>
<path d="M1208 1273 c94 -2 250 -2 345 0 94 1 17 3 -173 3 -190 0 -267 -2
-172 -3z"/>
<path d="M3453 1273 c97 -2 257 -2 355 0 97 1 17 2 -178 2 -195 0 -275 -1
-177 -2z"/>
<path d="M1373 1243 c64 -2 170 -2 235 0 64 1 11 3 -118 3 -129 0 -182 -2
-117 -3z"/>
<path d="M3393 1243 c64 -2 170 -2 235 0 64 1 11 3 -118 3 -129 0 -182 -2
-117 -3z"/>
</g>
</svg>
